<?xml version="1.0" encoding="utf-8"?>
<!-- Generator: Adobe Illustrator 15.0.2, SVG Export Plug-In . SVG Version: 6.00 Build 0)  -->
<!DOCTYPE svg PUBLIC "-//W3C//DTD SVG 1.1//EN" "http://www.w3.org/Graphics/SVG/1.1/DTD/svg11.dtd">
<svg version="1.1" id="Layer_1" xmlns="http://www.w3.org/2000/svg" xmlns:xlink="http://www.w3.org/1999/xlink" x="0px" y="0px"
	 width="960px" height="887.947px" viewBox="0 0 960 887.947" enable-background="new 0 0 960 887.947" xml:space="preserve">
<g>
	<defs>
		<rect id="SVGID_1_" width="960" height="887.947"/>
	</defs>
	<clipPath id="SVGID_2_">
		<use xlink:href="#SVGID_1_"  overflow="visible"/>
	</clipPath>
	<path clip-path="url(#SVGID_2_)" fill="#FFFFFF" d="M324.415,128.04c51.709-0.058,103.417,0.012,155.125-0.034
		c-0.034,4.294,0,8.588,0.035,12.895c-8.463,0.919-16.983,2.044-25.056,4.857c-5.81,2.114-11.644,5.157-15.284,10.324
		c-2.698,4.352-4.214,9.324-5.351,14.285c-2.481,12.47-2.698,25.239-2.641,37.905c0.011,102.579-0.023,205.147,0.011,307.727
		c0.333,13.067,0.609,26.538,5.26,38.927c1.838,5.295,6.35,9.153,11.299,11.507c9.772,4.754,20.646,6.568,31.314,8.142
		c-0.046,4.341,0,8.693,0.231,13.044c-98.274,0.047-196.558,0-294.843,0.024c-8.922-40.146-17.822-80.291-26.767-120.424
		c4.64,0.022,9.279,0.056,13.918-0.023c9.176,22.759,18.844,45.979,34.852,64.904c7.314,8.921,17.121,15.742,28.213,19.037
		c23.955,7.545,49.321,8.578,74.239,9.303c14.251,0.034,28.535,0.436,42.752-0.69c6.614-0.827,14.434-1.239,18.982-6.855
		c4.409-6.326,4.352-14.468,4.524-21.863c-0.046-112.96,0.092-225.932-0.069-338.892c-0.746-13.251-1.206-28.156-10.231-38.778
		c-10.978-9.749-26.504-11.092-40.491-12.356C324.461,136.686,324.45,132.357,324.415,128.04"/>
	<path clip-path="url(#SVGID_2_)" fill="#FFFFFF" d="M479.806,127.465c51.628-0.126,103.257,0.104,154.872-0.114
		c-0.091,4.329,0.127,8.658,0.013,12.987c-12.472,1.366-25.712,2.469-36.53,9.439c-5.59,3.388-8.817,9.405-10.621,15.503
		c-3.203,11-3.662,22.552-3.65,33.943v334.034c0.148,6.282,0.804,12.862,3.973,18.441c2.917,4.282,8.279,5.846,13.126,6.718
		c7.808,1.183,15.72,1.517,23.608,1.527c26.997,0.219,54.201,0.013,80.876-4.662c13.091-2.435,26.595-5.799,37.354-14.055
		c12.416-10.243,21.142-24.127,28.479-38.274c6.201-11.678,11.346-23.885,16.111-36.205c4.627,0.045,9.279,0.045,13.929,0.011
		c-8.876,40.122-17.753,80.244-26.767,120.333c-98.331-0.104-196.673,0.148-295.002-0.128c-0.092-4.249-0.173-8.498-0.138-12.746
		c12.401-2.067,25.492-3.755,36.207-10.874c5.419-3.456,7.843-9.795,9.255-15.789c2.641-11.828,3.054-24.012,2.998-36.092
		c0.01-96.435,0-192.882,0.01-289.318c-0.183-16.053,0.724-32.234-1.836-48.149c-1.528-9.094-4.065-19.349-12.493-24.517
		c-10.002-6.132-22.002-7.9-33.51-8.876C479.943,136.215,480.114,131.84,479.806,127.465"/>
	<path clip-path="url(#SVGID_2_)" fill="#FFFFFF" d="M413.65,619.228c3.991-2.659,9.097-2.739,13.43-4.73
		c-0.288,14.205-0.126,28.418-0.261,42.623c0.009,2.387-0.171,4.829,0.46,7.171c1.585,1.514,4.098,0.847,6.08,1.368
		c-3.936,2.684-8.963,3.288-13.376,5.009c0.054-1.802,0.117-3.603,0.243-5.396c-2.531,2.379-5.306,5.018-8.989,5.18
		c-4.81,0.685-9.98-0.954-13.061-4.81c-8.782-9.792-4.17-27.698,8.097-32.247c4.729-1.765,10.125-0.746,13.854,2.658
		c-0.343-5.441,0.315-10.927-0.532-16.331C417.614,619.488,415.623,619.389,413.65,619.228 M409.156,635.251
		c-6.035,1.91-8.278,8.872-8.305,14.618c0.072,5.747,1.991,12.431,7.412,15.331c3.91,1.729,9.495,1.188,11.557-3.035
		c0.487-4.675,0.055-9.404,0.208-14.097c-0.136-3.152,0.54-6.684-1.379-9.439C416.496,635.774,412.614,634.458,409.156,635.251"/>
	<path clip-path="url(#SVGID_2_)" fill="#FFFFFF" d="M676.557,619.228c4.01-2.659,9.135-2.721,13.477-4.738
		c-0.36,15.978-0.353,31.976-0.216,47.954c-0.154,3.91,4.368,2.071,6.494,3.773c-4.45,1.578-8.98,2.902-13.413,4.523
		c0.027-1.803,0.082-3.595,0.172-5.377c-3.226,3.413-7.666,5.98-12.529,5.178c-6.521-0.297-11.494-5.792-13.26-11.727
		c-2.431-8.621,0.974-18.583,8.378-23.689c5.169-3.469,12.872-3.685,17.329,1.098c-0.233-5.042,0.226-10.114-0.262-15.141
		C682.18,618.326,678.413,619.919,676.557,619.228 M670.146,636.07c-3.964,2.226-5.676,6.882-6.216,11.168
		c-0.675,5.919,0.767,12.478,5.197,16.709c3.973,3.09,11.179,3.27,13.6-1.837c0.451-6.449,0.164-12.971,0.128-19.447
		C682.8,636.603,675.099,633.215,670.146,636.07"/>
	<path clip-path="url(#SVGID_2_)" fill="#FFFFFF" d="M182.899,616.066c4.027-0.57,8.089-0.092,12.133-0.236
		c4.387,0.116,8.791-0.324,13.151,0.236c-1.982,1.665-4.765,1.377-7.116,2.179c-0.837,1.702-1.532,3.521-1.441,5.478
		c-0.036,12.311,0.027,24.626-0.027,36.937c-0.036,1.92,0.117,3.838,0.467,5.729c6.685,0.757,13.531,0.729,20.187-0.351
		c5.152-0.631,7.908-5.504,10.385-9.467c0.522-0.181,1.576-0.532,2.108-0.711c-0.999,4.728-2.721,9.267-3.964,13.934
		c-15.024,0.09-30.048-0.082-45.072,0.09l-0.136-1.261c2.018-0.424,4.144-0.604,6-1.566c1.387-1.442,1.378-3.585,1.431-5.45
		c0.009-12.025-0.017-24.05,0.009-36.074c-0.026-2.422,0.118-5.107-1.504-7.107C187.447,617.218,184.655,617.838,182.899,616.066"/>
	<path clip-path="url(#SVGID_2_)" fill="#FFFFFF" d="M561.272,616.507c1.226-0.578,2.522-0.819,3.882-0.729
		c6.873,0.098,13.736,0.052,20.608-0.019c0.027,0.332,0.071,1.009,0.092,1.342c-2.181,0.432-4.82,0.135-6.503,1.846
		c-1.461,2.216-1.127,4.982-1.208,7.503c0.036,12.295-0.027,24.608,0.027,36.912c-0.091,1.415,0.379,3.271,2.126,3.262
		c6.476,0.378,13.123,0.576,19.501-0.83c4.72-0.999,7.079-5.593,9.512-9.26c0.53-0.171,1.602-0.521,2.134-0.693
		c-1.225,4.729-2.784,9.368-4.143,14.063c-15.313-0.208-30.635,0.106-45.947-0.172c1.919-1.648,4.494-1.811,6.846-2.415
		c0.729-1.53,1.422-3.123,1.342-4.854c0.08-12.015-0.009-24.022,0.046-36.038c-0.037-2.388,0.107-4.854-0.747-7.134
		C566.992,617.074,563.705,617.597,561.272,616.507"/>
	<path clip-path="url(#SVGID_2_)" fill="#FFFFFF" d="M241.573,637.043c5.927-5.991,16.926-6.097,22.547,0.379
		c2.503,2.667,3.179,6.395,3.458,9.908c-8.719,0.027-17.438,0.035-26.157-0.01c0.396,5.422,1.53,11.512,6.142,15.007
		c4.919,3.91,12.737,3.251,16.809-1.587c1.711-1.377,2.323-4.456,4.972-4.268c-2.279,6.016-6.765,11.88-13.232,13.583
		c-4.72,0.928-10.242,0.818-14.034-2.541C233.404,659.949,233.215,644.916,241.573,637.043 M246.987,636.17
		c-3.324,1.396-4.494,5.043-5.539,8.178c5.872,0.027,11.746,0.171,17.618-0.071c-0.621-2.261-0.972-4.738-2.504-6.604
		C254.139,635.142,250.104,635.053,246.987,636.17"/>
	<path clip-path="url(#SVGID_2_)" fill="#FFFFFF" d="M277.846,650.671c-3.684-7.232,2.017-16.619,9.791-17.771
		c3.999-0.964,8.034,0.197,11.836,1.423c3.522,1.207,7.268,0.766,10.908,0.667c0.044,1.106,0.099,2.225,0.134,3.351
		c-2.377-0.018-4.764-0.063-7.142-0.045c1.784,4.071,2.793,9.042,0.144,12.987c-3.216,5.873-10.701,7.656-16.835,6.107
		c-1.999,1.469-4.35,3.099-4.684,5.774c7.485,3.963,17.133-0.45,24.455,4.313c4.756,3.297,3.792,10.783-0.405,14.134
		c-6.989,5.42-16.592,7.539-25.175,5.286c-3.351-1.188-7.143-3.458-7.711-7.296c0.865-4.395,5.278-6.764,8.269-9.682
		c-1.847-1.207-4.36-2.208-4.432-4.783c1.306-3.63,4.594-5.98,7.422-8.386C281.729,655.365,279.035,653.599,277.846,650.671
		 M284.584,638.447c-1.884,5.027-0.793,11.27,3.053,15.105c2.72,2.874,8.17,2.586,10.016-1.125
		c1.919-4.611,0.261-9.701-1.576-14.052c0.36,0.216,1.098,0.641,1.459,0.855c-1.315-0.828-2.423-1.927-3.594-2.917
		C291.077,633.962,285.917,634.781,284.584,638.447 M279.44,678.748c0.865,2.791,4.089,3.422,6.576,4.007
		c6.494,1.073,14.096,0.92,19.365-3.558c2.423-1.793,2.711-6.358-0.612-7.287c-7.035-1.621-14.403-0.323-21.474-1.873
		C281.332,672.505,278.467,675.262,279.44,678.748"/>
	<path clip-path="url(#SVGID_2_)" fill="#FFFFFF" d="M319.695,637.79c5.684-6.557,16.979-7.106,23.014-0.729
		c2.855,2.613,3.405,6.612,3.756,10.26c-8.71,0.055-17.421,0.027-26.14,0.01c0.289,6.232,2.153,13.638,8.431,16.394
		c3.342,1.971,7.234,0.558,10.837,0.802c2.793-2.794,5.287-5.865,8.088-8.647c0.189,4.044-2.847,7.216-5.432,9.954
		c-5.458,5.674-15.439,6.618-21.545,1.484C312.552,659.913,312.264,645.798,319.695,637.79 M323.577,637.872
		c-1.847,1.758-2.378,4.323-3.116,6.646c5.8-0.197,11.619-0.234,17.42,0.081c-0.478-2.917-1.009-6.304-3.775-7.979
		C330.837,634.756,326.244,635.098,323.577,637.872"/>
	<path clip-path="url(#SVGID_2_)" fill="#FFFFFF" d="M351.4,636.16c4.099-1.099,8.089-2.496,12.16-3.674
		c-0.018,2.153-0.063,4.314-0.098,6.484c3.836-3.171,8.114-6.918,13.474-6.378c5.008,0.416,8.377,5.351,8.459,10.106
		c0.251,6.854,0,13.728,0.089,20.583c-0.009,1.404,0.442,2.746,0.855,4.08c1.686,0.657,3.423,1.225,4.928,2.279
		c-6.287,0.386-12.61,0.207-18.897,0.09c1.927-1.865,5.944-2.027,5.944-5.369c0.432-6.313,0.073-12.673,0.19-19.005
		c0.198-2.703-0.739-5.287-2.253-7.485c-4.494-2.072-9.25,0.352-12.258,3.801c-0.244,6.333,0.027,12.675-0.1,19.015
		c0.072,2.217-0.315,4.656,0.991,6.62c1.369,0.821,2.982,1.045,4.513,1.441l-0.126,1.117c-6.179-0.089-12.368,0.08-18.537-0.117
		c1.414-1.359,3.305-1.892,5.107-2.504c0.468-1.551,0.91-3.116,0.846-4.729c-0.036-6.937,0.027-13.861-0.036-20.788
		c0.045-1.433-0.558-2.748-1.017-4.063c-1.459-0.136-2.919-0.235-4.369-0.261C351.301,637.088,351.364,636.467,351.4,636.16"/>
	<path clip-path="url(#SVGID_2_)" fill="#FFFFFF" d="M438.574,640.106c2.198-5.892,9.124-7.981,14.889-7.521
		c4.585-0.01,9.548,2.62,10.53,7.413c1.496,8.386-0.234,17.022,1.018,25.417c2.044,1.307,4.296,0.109,6.304-0.584
		c-1.305,4.26-6.674,7.062-10.826,5.17c-1.828-0.929-2.216-3.152-2.784-4.892c-3.629,2.703-7.646,5.586-12.366,5.54
		c-4.09-0.036-8.062-3.106-8.468-7.296c-0.685-4.459,2.351-8.476,6.035-10.593c4.666-2.684,9.773-4.484,14.836-6.251
		c-0.199-3.288,0.621-7.098-1.559-9.89c-2.711-2.218-6.954-2.081-9.737-0.055c-2.549,2.08,1.117,6.729-2.342,8.278
		C441.158,646.654,437.259,643.295,438.574,640.106 M445.059,656.625c-2.143,3.125-0.657,8.161,3.153,9.151
		c3.342,0.819,7.846-0.378,9.358-3.692c0.343-4.378,0.091-8.773,0.127-13.151C453.058,650.582,447.905,652.302,445.059,656.625"/>
	<path clip-path="url(#SVGID_2_)" fill="#FFFFFF" d="M470.253,637.502c4.243-2.432,9.179-3.206,13.7-4.998
		c-0.035,2.494-0.063,4.99-0.018,7.494c2.881-3.369,6.116-8.053,11.196-7.377c3.514,0.566,5.007,5.593,1.945,7.719
		c-2.847,1.514-5.107-1.396-7.477-2.468c-3.036,1.145-5.683,4.117-5.584,7.485c-0.109,5.106,0,10.215-0.063,15.321
		c0.036,2.215-0.055,4.754,1.459,6.575c1.685,1.126,3.773,1.145,5.712,1.442c-0.037,0.306-0.109,0.918-0.146,1.225
		c-6.69-0.172-13.375-0.055-20.067-0.063c0.017-0.308,0.036-0.91,0.045-1.217c1.837-0.378,3.648-0.873,5.44-1.45
		c1.315-5.063,0.558-10.331,0.756-15.492c-0.17-4.099,0.515-8.358-0.747-12.321C475.351,636.846,472.316,637.88,470.253,637.502"/>
	<path clip-path="url(#SVGID_2_)" fill="#FFFFFF" d="M627.711,633.243c6.712-1.793,14.475-0.146,19.356,4.961
		c7.171,7.864,6.008,21.475-2.099,28.267c-7.098,6.224-19.113,5.377-25.301-1.757c-5.676-5.954-6.729-15.646-2.847-22.834
		C619.091,637.701,623.055,634.386,627.711,633.243 M630.386,635.142c-3.621,0.633-6.396,3.676-7.27,7.17
		c-1.927,7.217-0.846,15.421,3.503,21.583c2.587,3.928,8.154,5.512,12.315,3.162c2.666-1.883,4.126-5.045,4.711-8.179
		c1.243-6.523,0.108-13.557-3.45-19.204C638.223,636.377,634.179,634.484,630.386,635.142"/>
	<path clip-path="url(#SVGID_2_)" fill="#FFFFFF" d="M708.417,634.503c4.639-2.657,10.368-2.314,15.231-0.458
		c3.838,1.414,7.954,1.09,11.961,0.979c0.01,1.101,0.02,2.208,0.037,3.316c-2.36-0.011-4.721-0.063-7.071-0.045
		c1.91,4.251,2.793,9.529-0.171,13.537c-3.396,5.567-10.664,6.981-16.646,5.575c-2.134,1.531-4.17,3.37-4.764,6.045
		c7.593,3.043,16.339-0.118,23.789,3.458c5.323,2.737,5.098,10.594,0.928,14.277c-5.666,4.774-13.332,6.954-20.672,6.565
		c-4.549-0.27-9.423-1.936-11.989-5.936c-1.09-1.711-0.703-3.927,0.621-5.376c2.116-2.425,4.576-4.522,7.025-6.603
		c-1.954-1.019-4.351-2.145-4.53-4.657c1.307-3.63,4.585-6.017,7.423-8.423c-2.667-1.414-5.396-3.161-6.522-6.106
		C700.04,644.942,703.185,637.691,708.417,634.503 M711.624,636.07c-2.325,1.648-2.675,4.8-2.729,7.432
		c0.055,4.188,1.675,8.801,5.351,11.151c3.233,1.936,8.063,0.485,9.043-3.325c0.972-4.44-0.072-9.215-2.315-13.114
		C719.208,634.998,714.605,634.008,711.624,636.07 M704.446,676.865c-0.309,2.306,1.386,4.378,3.547,4.99
		c6.054,2.017,12.846,1.98,18.835-0.234c2.657-1.216,5.837-3.324,5.629-6.64c-0.206-2.629-3.081-3.53-5.287-3.665
		c-6.204-0.449-12.475-0.098-18.617-1.289C706.895,672.091,704.806,674.109,704.446,676.865"/>
	<path clip-path="url(#SVGID_2_)" fill="#FFFFFF" d="M740.592,645.303c1.774-5.891,6.53-11.133,12.709-12.357
		c5.981-1.433,12.817,0.918,16.205,6.152c1.656,2.413,1.819,5.413,2.224,8.223c-8.719,0.055-17.438,0.027-26.148,0.01
		c0.28,5.26,1.36,11.131,5.639,14.682c4.459,3.882,11.673,3.793,16.095-0.108c2.281-1.585,3.117-4.747,5.875-5.71
		c-0.623,3.998-3.298,7.286-6.135,10.006c-5.493,5.352-15.203,6.026-21.177,1.135C739.951,661.886,738.178,652.833,740.592,645.303
		 M748.753,637.899c-1.785,1.71-2.342,4.196-3.072,6.468c5.783,0.134,11.583-0.182,17.375,0.225
		c-0.423-2.909-0.982-6.216-3.675-7.937C756.11,634.737,751.418,635.07,748.753,637.899"/>
	<path clip-path="url(#SVGID_2_)" fill="#FFFFFF" d="M499.258,633.576c6.24-0.217,12.529-0.354,18.771,0.063
		c-1.623,1.242-3.75,1.234-5.505,2.171c-0.504,1.334,0.044,2.675,0.613,3.891c3.188,6.747,6.377,13.502,9.573,20.249
		c2.648-7.044,5.531-13.989,8.027-21.087c1.046-2.079,0.034-4.449-2.693-4.467c-0.055,0.423-0.172,1.287-0.226,1.72
		c-0.262-0.91-0.469-1.819-0.686-2.711c4.01,0.063,8.026-0.127,12.025,0.18c-0.883,0.712-1.837,1.334-2.847,1.846
		c-1.216,1.693-2.08,3.605-2.792,5.56c-4.073,10.762-8.323,21.454-12.44,32.2c-1.998,4.415-3.862,9.161-7.52,12.493
		c-3.216,2.828-8.116,2.612-11.602,0.38c-0.352-1.063-0.703-2.118-1.055-3.164c0.74-1.097,1.217-2.836,2.766-3.007
		c2.523-0.865,4.865,0.801,7.287,1.279c2.298,0.261,3.386-2.172,4.433-3.767c1.468-2.998,3.376-6.143,3.232-9.564
		c-4.261-9.765-9.124-19.277-13.582-28.96C504.065,636.205,501.508,634.953,499.258,633.576"/>
	<path clip-path="url(#SVGID_2_)" fill="#FFFFFF" d="M418.298,687.432c0.37-0.065,1.118-0.182,1.495-0.244
		c0.748,6.161,1.46,12.34,1.892,18.537c-0.505-0.153-1.495-0.451-1.991-0.604c-1.387-4.324-3.134-8.971-7.161-11.529
		c-4.097-2.963-10.214-4.278-14.52-1.019c-4.017,3.027-3.431,9.458,0.163,12.584c6.836,5.954,15.807,9.052,22.014,15.799
		c3.485,3.683,4.152,9.268,2.855,14.007c-1.991,6.215-8.116,10.646-14.547,11.132c-5.576,0.865-10.926-1.233-16.231-2.548
		c-1.757,0.441-2.594,2.333-4.062,3.287c-1.235-6.295-2.054-12.683-2.775-19.051c0.487,0.182,1.45,0.55,1.937,0.739
		c2.279,5.17,5.296,10.521,10.692,12.962c4.648,2.197,11.007,2.27,14.655-1.811c3.638-4.098,2.801-11.079-1.441-14.439
		c-4.946-4.135-10.746-7.035-16.052-10.646c-2.648-1.847-5.152-4.116-6.485-7.125c-2.585-5.81-0.541-13.187,4.513-17.016
		c4.134-3.105,9.782-3.783,14.708-2.404c2.532,0.53,4.918,1.711,7.522,1.946C417.02,690.195,417.443,688.313,418.298,687.432"/>
	<path clip-path="url(#SVGID_2_)" fill="#FFFFFF" d="M520.118,688.611c2.206-3.406,7.979-1.253,7.755,2.684
		c0.072,3.332-3.648,4.927-6.512,4.125C519.523,693.7,518.127,690.772,520.118,688.611"/>
	<path clip-path="url(#SVGID_2_)" fill="#FFFFFF" d="M479.89,705.157c0.416,0.252,0.829,0.514,1.253,0.802
		c-0.063,2.136-0.073,4.269-0.091,6.422c3.486-2.928,7.17-6.377,11.988-6.584c3.668-0.405,7.341,1.793,8.837,5.125
		c1.441,2.819,1.559,6.07,1.586,9.179c-0.011,5.702-0.011,11.413-0.027,17.123c0.054,1.478-0.09,3.08,0.64,4.44
		c0.721,1.991,3.224,1.702,4.891,2.324c-0.108,0.287-0.315,0.855-0.423,1.144c-6.117-0.288-12.252,0.226-18.349-0.324
		c1.496-1.189,3.378-1.702,4.963-2.755c1.253-1.632,1.063-3.803,1.18-5.729c0-6.297,0.082-12.593-0.035-18.89
		c-0.171-2.693-1.046-6.268-4.126-6.862c-4.09-1.172-7.907,1.547-10.466,4.449c-0.299,8.503-0.252,17.068-0.01,25.581
		c0.586,3.062,4.197,2.593,6.232,4.133c-6.521,0.613-13.131,0.308-19.67,0.146c1.503-1.974,5.178-1.368,5.62-4.296
		c0.477-6.811,0.054-13.674,0.207-20.501c-0.108-3.118,0.478-6.478-1.171-9.297c-1.666-0.135-3.351-0.252-4.999-0.404
		c3.278-2.432,7.53-2.774,11.304-4.1C479.386,705.994,479.719,705.437,479.89,705.157"/>
	<path clip-path="url(#SVGID_2_)" fill="#FFFFFF" d="M437.79,709.777c6.018-5.486,16.394-5.414,21.97,0.702
		c2.873,2.82,3.495,7.026,3.891,10.854c-8.9,0.036-17.808-0.116-26.717,0.072c0.55,5.306,1.316,11.331,5.676,14.997
		c4.81,4.9,13.646,4.171,17.844-1.171c1.584-1.495,2.341-4.34,4.936-4.196c-2.117,5.736-6.098,11.141-11.8,13.681
		c-5.594,2.135-12.755,1.425-17.006-3.09C428.63,732.908,429.026,717.794,437.79,709.777 M439.809,711.967
		c-1.522,1.656-1.982,3.964-2.757,6.026c5.945,0.091,11.899,0.018,17.843,0.035c-0.603-2.314-0.801-4.926-2.557-6.729
		C448.978,708.022,442.8,708.346,439.809,711.967"/>
	<path clip-path="url(#SVGID_2_)" fill="#FFFFFF" d="M514.065,710.121c4.512-1.316,8.927-2.955,13.393-4.441
		c-0.179,13.808,0.235,27.635-0.215,41.442c-0.046,5.774-1.946,12.547-7.72,15.044c-4.899,2.026-12.242,2.242-15.006-3.191
		c0.675-1.564,1.053-3.656,2.98-4.15c3.639-0.434,5.387,3.504,7.836,5.495c2.802,0.008,4.711-2.262,4.685-4.99
		c0.631-9.594,0.154-19.24,0.306-28.861c-0.098-4.999,0.354-10.035-0.484-14.987c-1.992-0.855-4.055-0.515-6.063,0.017
		C513.848,711.155,513.993,710.462,514.065,710.121"/>
	<path clip-path="url(#SVGID_2_)" fill="#FFFFFF" d="M540.764,710.038c4.024-4.448,10.674-4.827,16.214-3.773
		c4.304,0.847,7.277,4.881,7.629,9.142c0.763,8.126-0.335,16.358,0.574,24.474c1.063,2.774,4.559,0.712,6.566,0.181
		c-1.251,4.09-6.098,6.468-10.151,5.576c-2.44-0.657-3.17-3.343-3.666-5.496c-3.593,2.875-7.691,5.729-12.492,5.712
		c-4.594,0.169-8.898-3.965-8.801-8.584c-0.152-4.143,2.441-7.989,5.936-10.034c4.793-2.964,10.188-4.721,15.375-6.819
		c-0.305-3.278,0.479-6.899-1.124-9.916c-2.441-2.892-7.196-2.974-10.133-0.839c-2.091,1.343-0.964,3.99-1.001,6
		c0.369,1.917-1.567,2.99-2.854,3.954c-1.369-0.54-3.206-0.54-3.918-2.063C537.25,715.065,538.871,711.895,540.764,710.038
		 M545.222,730.792c-2.469,3.558-0.965,9.61,3.646,10.422c3.785,0.649,9.523-1.594,9.02-6.206c0.008-4.028-0.163-8.054,0.179-12.061
		C553.311,724.515,548.176,726.523,545.222,730.792"/>
	<path clip-path="url(#SVGID_2_)" fill="#FFFFFF" d="M466.661,43.612c46.496-1.304,93.245,3.787,138.12,16.161
		c66.818,18.158,129.635,51.802,180.678,98.711c26.95,24.672,51.174,52.457,70.728,83.373
		c34.461,53.827,55.178,116.54,58.449,180.434c1.312,29.125,0.469,58.476-4.557,87.247c-8.08,48.276-25.985,94.838-51.979,136.291
		c-22.527,36.345-51.493,68.414-83.808,96.302c-74.457,63.519-170.779,99.882-268.325,104.484
		c-37.864,1.809-75.997,0.064-113.325-6.769c-75.547-13.536-147.794-46.354-206.645-95.776
		c-28.854-24.542-55.064-52.392-76.511-83.664c-41.332-59.761-65.471-131.642-66.482-204.433
		c-1.313-40.862,3.749-82.005,15.842-121.096c18.664-61.785,53.967-118.095,99.938-163.233
		c38.349-38.574,84.377-69.303,134.285-90.836C347.759,57.233,407.116,44.531,466.661,43.612 M452.16,59.37
		c-72.96,4.771-144.887,26.997-207.254,65.282c-41.848,25.704-79.672,58.401-109.238,97.744
		c-39.84,51.906-66.284,114.187-74.769,179.141c-2.455,19.273-3.843,38.772-2.661,58.186c0.853,17.651,3.037,35.247,6.486,52.578
		c14.755,75.229,53.798,145.02,108.488,198.52c26.191,25.084,55.654,46.72,87.329,64.383
		c66.407,37.044,142.329,56.525,218.307,57.088c66.013-0.441,131.969-15.141,191.71-43.29
		c38.051-17.896,73.542-41.276,104.813-69.406c32.633-29.624,59.976-65.001,80.814-103.819
		c25.424-47.416,40.544-100.351,43.516-154.094c1.81-31.816-1.837-63.792-8.877-94.811
		c-16.901-73.174-56.62-140.612-111.262-191.964c-56.293-52.131-126.88-88.164-201.604-105.056
		C536.78,60.692,494.307,56.445,452.16,59.37"/>
	<path clip-path="url(#SVGID_2_)" fill="#FFFFFF" d="M478.457,858.19c-30.647,0-60.18-2.562-87.778-7.614
		c-78.84-14.127-152.057-48.07-211.696-98.152c-31.257-26.587-57.647-55.454-78.493-85.849
		c-43.056-62.254-67.353-136.964-68.392-210.353c-1.377-43.186,4.117-85.098,16.328-124.57
		c18.792-62.211,54.301-120.239,102.666-167.742c38.979-39.198,85.293-70.527,137.657-93.118
		c55.611-23.974,117.045-37.143,177.675-38.088c4.773-0.133,9.604-0.2,14.358-0.2c43.891,0,86.586,5.635,126.898,16.751
		c69.694,18.94,133.735,53.936,185.161,101.196c29.058,26.603,53.478,55.399,72.564,85.574
		c35.981,56.201,56.782,120.435,60.123,185.708c1.514,33.586-0.025,62.897-4.704,89.68c-8.198,48.985-26.697,97.495-53.482,140.211
		c-21.754,35.097-50.673,68.343-85.922,98.765C706.067,814.671,608.443,852.7,506.482,857.511
		C497.048,857.961,487.617,858.19,478.457,858.19 M180.801,702.983c25.333,24.256,53.948,45.347,85.053,62.691
		c64.315,35.878,137.965,55.14,213.002,55.706c64.654-0.444,129.335-15.052,187.054-42.249
		c37.503-17.64,71.875-40.397,102.166-67.648c31.505-28.599,57.928-62.547,78.5-100.868c24.773-46.205,39.379-97.916,42.234-149.536
		c1.623-28.551-1.277-59.429-8.624-91.794c-16.139-69.868-54.53-136.091-108.095-186.429
		c-54.125-50.125-122.106-85.54-196.537-102.365c-33.184-7.382-65.729-11.127-96.696-11.127c-8.718,0-17.447,0.299-25.943,0.888
		c-72.168,4.72-142.108,26.745-202.302,63.696c-42.928,26.368-78.667,58.331-106.224,95.001
		c-39.399,51.33-64.506,111.468-72.673,174.001c-2.771,21.749-3.596,39.591-2.59,56.109l0.007,0.137
		c0.821,16.979,2.937,34.131,6.29,50.976C89.465,581.763,126.885,650.226,180.801,702.983"/>
</g>
</svg>
